<svg width="180" height="220" viewBox="0 0 180 220" fill="none" xmlns="http://www.w3.org/2000/svg">
<rect x="1.5" y="1.5" width="177" height="217" rx="6.5" fill="#FBF7ED" stroke="#383A48" stroke-width="3"/>
<path d="M90 94.375V85" stroke="#383A48" stroke-width="4" stroke-linecap="round" stroke-linejoin="round"/>
<path d="M89.9989 85C108.046 78.75 89.9989 63.125 89.9989 63.125C89.9989 63.125 71.2489 78.75 89.9989 85Z" stroke="#383A48" stroke-width="4" stroke-linecap="round" stroke-linejoin="round"/>
<path d="M103.281 109.219C103.281 112.741 101.882 116.119 99.3913 118.61C96.9005 121.101 93.5224 122.5 90 122.5C86.4776 122.5 83.0995 121.101 80.6087 118.61C78.118 116.119 76.7188 112.741 76.7188 109.219" stroke="#383A48" stroke-width="4" stroke-linecap="round" stroke-linejoin="round"/>
<path d="M76.7188 109.219C76.7196 112.694 75.3579 116.032 72.926 118.515C70.4941 120.998 67.1858 122.429 63.711 122.5C56.2501 122.656 50.1563 116.406 50.1563 108.945V103.75C50.1512 102.517 50.3901 101.296 50.8594 100.156C51.3287 99.0166 52.0191 97.981 52.8907 97.1094C53.7623 96.2379 54.7978 95.5475 55.9376 95.0782C57.0773 94.6089 58.2987 94.3699 59.5313 94.3751H120.469C121.701 94.3699 122.923 94.6089 124.063 95.0782C125.202 95.5475 126.238 96.2379 127.109 97.1094C127.981 97.981 128.671 99.0166 129.141 100.156C129.61 101.296 129.849 102.517 129.844 103.75V108.945C129.844 116.406 123.75 122.656 116.289 122.5C112.814 122.429 109.506 120.998 107.074 118.515C104.642 116.032 103.281 112.694 103.281 109.219" stroke="#383A48" stroke-width="4" stroke-linecap="round" stroke-linejoin="round"/>
<path d="M124.375 119.883V141.25C124.375 142.079 124.046 142.874 123.46 143.46C122.874 144.046 122.079 144.375 121.25 144.375H58.75C57.9212 144.375 57.1263 144.046 56.5403 143.46C55.9542 142.874 55.625 142.079 55.625 141.25V119.883" stroke="#383A48" stroke-width="4" stroke-linecap="round" stroke-linejoin="round"/>
</svg>
