<svg width="180" height="220" viewBox="0 0 180 220" fill="none" xmlns="http://www.w3.org/2000/svg">
<rect x="1.5" y="1.5" width="177" height="217" rx="6.5" fill="#FBF7ED" stroke="#383A48" stroke-width="3"/>
<path d="M104.062 125.625C106.651 125.625 108.75 123.526 108.75 120.938C108.75 118.349 106.651 116.25 104.062 116.25C101.474 116.25 99.375 118.349 99.375 120.938C99.375 123.526 101.474 125.625 104.062 125.625Z" fill="#383A48"/>
<path d="M75.9375 125.625C78.5263 125.625 80.625 123.526 80.625 120.938C80.625 118.349 78.5263 116.25 75.9375 116.25C73.3487 116.25 71.25 118.349 71.25 120.938C71.25 123.526 73.3487 125.625 75.9375 125.625Z" fill="#383A48"/>
<path d="M49.375 135V126.055C49.375 103.594 67.4219 85.0781 89.8437 84.9999C95.1918 84.9794 100.491 86.015 105.438 88.0474C110.385 90.0798 114.882 93.0689 118.671 96.8433C122.46 100.618 125.466 105.103 127.518 110.042C129.569 114.981 130.625 120.277 130.625 125.625V135C130.625 135.829 130.296 136.624 129.71 137.21C129.124 137.796 128.329 138.125 127.5 138.125H52.5C51.6712 138.125 50.8763 137.796 50.2903 137.21C49.7042 136.624 49.375 135.829 49.375 135Z" stroke="#383A48" stroke-width="4" stroke-linecap="round" stroke-linejoin="round"/>
<path d="M52.5 81.875L64.6484 94.0234" stroke="#383A48" stroke-width="4" stroke-linecap="round" stroke-linejoin="round"/>
<path d="M127.5 81.875L115.43 93.9453" stroke="#383A48" stroke-width="4" stroke-linecap="round" stroke-linejoin="round"/>
</svg>
