<svg width="180" height="220" viewBox="0 0 180 220" fill="none" xmlns="http://www.w3.org/2000/svg">
<rect x="1.5" y="1.5" width="177" height="217" rx="6.5" fill="#FBF7ED" stroke="#383A48" stroke-width="3"/>
<path d="M90 147.5C110.711 147.5 127.5 130.711 127.5 110C127.5 89.2893 110.711 72.5 90 72.5C69.2893 72.5 52.5 89.2893 52.5 110C52.5 130.711 69.2893 147.5 90 147.5Z" stroke="#383A48" stroke-width="4" stroke-linecap="round" stroke-linejoin="round"/>
<path d="M75.9375 114.688C78.5263 114.688 80.625 112.589 80.625 110C80.625 107.411 78.5263 105.312 75.9375 105.312C73.3487 105.312 71.25 107.411 71.25 110C71.25 112.589 73.3487 114.688 75.9375 114.688Z" fill="#383A48"/>
<path d="M104.062 114.688C106.651 114.688 108.75 112.589 108.75 110C108.75 107.411 106.651 105.312 104.062 105.312C101.474 105.312 99.375 107.411 99.375 110C99.375 112.589 101.474 114.688 104.062 114.688Z" fill="#383A48"/>
<path d="M100.352 125.625C97.2837 127.662 93.6828 128.749 90 128.749C86.3172 128.749 82.7163 127.662 79.6484 125.625" stroke="#383A48" stroke-width="4" stroke-linecap="round" stroke-linejoin="round"/>
<path d="M90 72.5C83.75 80.3125 83.75 88.125 83.75 88.125C83.75 89.7826 84.4085 91.3723 85.5806 92.5444C86.7527 93.7165 88.3424 94.375 90 94.375C91.6576 94.375 93.2473 93.7165 94.4194 92.5444C95.5915 91.3723 96.25 89.7826 96.25 88.125" stroke="#383A48" stroke-width="4" stroke-linecap="round" stroke-linejoin="round"/>
</svg>
