<svg width="180" height="220" viewBox="0 0 180 220" fill="none" xmlns="http://www.w3.org/2000/svg">
<rect x="1.5" y="1.5" width="177" height="217" rx="6.5" fill="#FBF7ED" stroke="#383A48" stroke-width="3"/>
<path d="M90 144.375C90 144.375 50.9375 122.5 50.9375 95.9375C50.9375 91.2418 52.5644 86.6911 55.5415 83.0596C58.5185 79.4282 62.6618 76.9404 67.2664 76.0195C71.871 75.0986 76.6524 75.8014 80.7971 78.0085C84.9419 80.2156 88.1939 83.7905 90 88.125V88.125C91.8061 83.7905 95.0581 80.2156 99.2029 78.0085C103.348 75.8014 108.129 75.0986 112.734 76.0195C117.338 76.9404 121.481 79.4282 124.459 83.0596C127.436 86.6911 129.062 91.2418 129.062 95.9375C129.062 122.5 90 144.375 90 144.375Z" stroke="#383A48" stroke-width="4" stroke-linecap="round" stroke-linejoin="round"/>
</svg>
