<svg width="180" height="220" viewBox="0 0 180 220" fill="none" xmlns="http://www.w3.org/2000/svg">
<rect x="1.5" y="1.5" width="177" height="217" rx="6.5" fill="#FBF7ED" stroke="#383A48" stroke-width="3"/>
<path d="M124.375 91.25H55.625C53.8991 91.25 52.5 92.6491 52.5 94.375V106.875C52.5 108.601 53.8991 110 55.625 110H124.375C126.101 110 127.5 108.601 127.5 106.875V94.375C127.5 92.6491 126.101 91.25 124.375 91.25Z" stroke="#383A48" stroke-width="4" stroke-linecap="round" stroke-linejoin="round"/>
<path d="M121.25 110V138.125C121.25 138.954 120.921 139.749 120.335 140.335C119.749 140.921 118.954 141.25 118.125 141.25H61.875C61.0462 141.25 60.2513 140.921 59.6653 140.335C59.0792 139.749 58.75 138.954 58.75 138.125V110" stroke="#383A48" stroke-width="4" stroke-linecap="round" stroke-linejoin="round"/>
<path d="M90 91.25V141.25" stroke="#383A48" stroke-width="4" stroke-linecap="round" stroke-linejoin="round"/>
<path d="M107.695 86.8358C103.242 91.2499 90 91.2499 90 91.2499C90 91.2499 90 78.0077 94.4141 73.5546C96.1753 71.7934 98.564 70.804 101.055 70.804C103.545 70.804 105.934 71.7934 107.695 73.5546C109.457 75.3158 110.446 77.7045 110.446 80.1952C110.446 82.6859 109.457 85.0746 107.695 86.8358V86.8358Z" stroke="#383A48" stroke-width="4" stroke-linecap="round" stroke-linejoin="round"/>
<path d="M72.3039 86.8358C76.757 91.2499 89.9992 91.2499 89.9992 91.2499C89.9992 91.2499 89.9992 78.0077 85.5851 73.5546C83.8239 71.7934 81.4352 70.804 78.9445 70.804C76.4538 70.804 74.0651 71.7934 72.3039 73.5546C70.5427 75.3158 69.5532 77.7045 69.5532 80.1952C69.5532 82.6859 70.5427 85.0746 72.3039 86.8358V86.8358Z" stroke="#383A48" stroke-width="4" stroke-linecap="round" stroke-linejoin="round"/>
</svg>
