<svg width="180" height="220" viewBox="0 0 180 220" fill="none" xmlns="http://www.w3.org/2000/svg">
<rect x="1.5" y="1.5" width="177" height="217" rx="6.5" fill="#FBF7ED" stroke="#383A48" stroke-width="3"/>
<path d="M90 135V144.375" stroke="#383A48" stroke-width="4" stroke-linecap="round" stroke-linejoin="round"/>
<path d="M75.9375 119.375C78.5263 119.375 80.625 117.276 80.625 114.688C80.625 112.099 78.5263 110 75.9375 110C73.3487 110 71.25 112.099 71.25 114.688C71.25 117.276 73.3487 119.375 75.9375 119.375Z" fill="#383A48"/>
<path d="M104.062 119.375C106.651 119.375 108.75 117.276 108.75 114.688C108.75 112.099 106.651 110 104.062 110C101.474 110 99.375 112.099 99.375 114.688C99.375 117.276 101.474 119.375 104.062 119.375Z" fill="#383A48"/>
<path d="M96.25 128.75L90 135L83.75 128.75" stroke="#383A48" stroke-width="4" stroke-linecap="round" stroke-linejoin="round"/>
<path d="M99.375 78.7498L121.172 73.3202C121.583 73.2167 122.01 73.1979 122.429 73.2649C122.847 73.3318 123.248 73.4832 123.606 73.7097C123.964 73.9362 124.272 74.2332 124.512 74.5826C124.751 74.932 124.917 75.3264 125 75.742L131.406 109.961C131.992 113.164 127.891 115.039 125.859 112.461L99.375 78.7498Z" stroke="#383A48" stroke-width="4" stroke-linecap="round" stroke-linejoin="round"/>
<path d="M80.6236 78.7498L58.8267 73.3202C58.4158 73.2167 57.9882 73.1979 57.5698 73.2649C57.1515 73.3318 56.7511 73.4832 56.393 73.7097C56.035 73.9362 55.7267 74.2332 55.487 74.5826C55.2473 74.932 55.0811 75.3264 54.9986 75.742L48.5923 109.961C48.0064 113.164 52.108 115.039 54.1392 112.461L80.6236 78.7498Z" stroke="#383A48" stroke-width="4" stroke-linecap="round" stroke-linejoin="round"/>
<path d="M80.625 78.75H99.375" stroke="#383A48" stroke-width="4" stroke-linecap="round" stroke-linejoin="round"/>
<path d="M121.25 106.602V131.875C121.25 135.19 119.933 138.37 117.589 140.714C115.245 143.058 112.065 144.375 108.75 144.375H71.25C67.9348 144.375 64.7554 143.058 62.4112 140.714C60.067 138.37 58.75 135.19 58.75 131.875V106.602" stroke="#383A48" stroke-width="4" stroke-linecap="round" stroke-linejoin="round"/>
</svg>
