<svg width="180" height="220" viewBox="0 0 180 220" fill="none" xmlns="http://www.w3.org/2000/svg">
<rect x="1.5" y="1.5" width="177" height="217" rx="6.5" fill="#FBF7ED" stroke="#383A48" stroke-width="3"/>
<path d="M115 106.875H125.586C126.163 106.876 126.728 106.716 127.218 106.412C127.709 106.108 128.104 105.673 128.359 105.156L135.547 90.7813C135.903 90.0613 135.972 89.2329 135.74 88.464C135.508 87.6951 134.992 87.0432 134.297 86.6406L115 75.625" stroke="#383A48" stroke-width="4" stroke-linecap="round" stroke-linejoin="round"/>
<path d="M65.0008 106.875H54.4149C53.8382 106.876 53.2726 106.716 52.7824 106.412C52.2922 106.108 51.897 105.673 51.6415 105.156L44.454 90.7813C44.0979 90.0613 44.0289 89.2329 44.261 88.464C44.4931 87.6951 45.009 87.0432 45.704 86.6406L65.0008 75.625" stroke="#383A48" stroke-width="4" stroke-linecap="round" stroke-linejoin="round"/>
<path d="M102.5 75.625C102.5 78.9402 101.183 82.1196 98.8388 84.4638C96.4946 86.808 93.3152 88.125 90 88.125C86.6848 88.125 83.5054 86.808 81.1612 84.4638C78.817 82.1196 77.5 78.9402 77.5 75.625H65V141.25C65 142.079 65.3292 142.874 65.9153 143.46C66.5013 144.046 67.2962 144.375 68.125 144.375H111.875C112.704 144.375 113.499 144.046 114.085 143.46C114.671 142.874 115 142.079 115 141.25V75.625H102.5Z" stroke="#383A48" stroke-width="4" stroke-linecap="round" stroke-linejoin="round"/>
</svg>
