<svg width="180" height="220" viewBox="0 0 180 220" fill="none" xmlns="http://www.w3.org/2000/svg">
<rect x="1.5" y="1.5" width="177" height="217" rx="6.5" fill="#FBF7ED" stroke="#383A48" stroke-width="3"/>
<path d="M90 135V147.5" stroke="#383A48" stroke-width="4" stroke-linecap="round" stroke-linejoin="round"/>
<path d="M72.8125 119.375C75.4013 119.375 77.5 117.276 77.5 114.688C77.5 112.099 75.4013 110 72.8125 110C70.2237 110 68.125 112.099 68.125 114.688C68.125 117.276 70.2237 119.375 72.8125 119.375Z" fill="#383A48"/>
<path d="M107.188 119.375C109.776 119.375 111.875 117.276 111.875 114.688C111.875 112.099 109.776 110 107.188 110C104.599 110 102.5 112.099 102.5 114.688C102.5 117.276 104.599 119.375 107.188 119.375Z" fill="#383A48"/>
<path d="M90 78.75V94.375" stroke="#383A48" stroke-width="4" stroke-linecap="round" stroke-linejoin="round"/>
<path d="M96.25 128.75L90 135L83.75 128.75" stroke="#383A48" stroke-width="4" stroke-linecap="round" stroke-linejoin="round"/>
<path d="M77.5 80.7031V94.375" stroke="#383A48" stroke-width="4" stroke-linecap="round" stroke-linejoin="round"/>
<path d="M102.5 80.7031V94.375" stroke="#383A48" stroke-width="4" stroke-linecap="round" stroke-linejoin="round"/>
<path d="M52.5 113.125V80.0392C52.501 79.4196 52.6863 78.8142 53.0322 78.3001C53.3781 77.7859 53.869 77.3862 54.4426 77.1518C55.0162 76.9173 55.6465 76.8587 56.2535 76.9833C56.8605 77.1079 57.4168 77.4102 57.8516 77.8517L66.4062 86.4064C73.2406 81.3791 81.516 78.6937 90 78.7502C98.484 78.6937 106.759 81.3791 113.594 86.4064V86.4064L122.148 77.8517C122.583 77.4102 123.139 77.1079 123.746 76.9833C124.353 76.8587 124.984 76.9173 125.557 77.1518C126.131 77.3862 126.622 77.7859 126.968 78.3001C127.314 78.8142 127.499 79.4196 127.5 80.0392V113.125C127.5 132.11 110.703 147.5 90 147.5C69.2969 147.5 52.5 132.11 52.5 113.125Z" stroke="#383A48" stroke-width="4" stroke-linecap="round" stroke-linejoin="round"/>
</svg>
