<svg width="180" height="220" viewBox="0 0 180 220" fill="none" xmlns="http://www.w3.org/2000/svg">
<rect x="1.5" y="1.5" width="177" height="217" rx="6.5" fill="#FBF7ED" stroke="#383A48" stroke-width="3"/>
<path d="M124.375 103.75C124.375 122.734 102.5 150.625 90 150.625C77.5 150.625 55.625 122.734 55.625 103.75C55.625 94.6332 59.2466 85.8898 65.6932 79.4432C72.1398 72.9966 80.8832 69.375 90 69.375C99.1168 69.375 107.86 72.9966 114.307 79.4432C120.753 85.8898 124.375 94.6332 124.375 103.75V103.75Z" stroke="#383A48" stroke-width="4" stroke-linecap="round" stroke-linejoin="round"/>
<path d="M80.625 117.812C77.3098 117.812 74.1304 116.496 71.7862 114.151C69.442 111.807 68.125 108.628 68.125 105.312V103.75C68.125 102.921 68.4542 102.126 69.0403 101.54C69.6263 100.954 70.4212 100.625 71.25 100.625C74.5652 100.625 77.7446 101.942 80.0888 104.286C82.433 106.63 83.75 109.81 83.75 113.125V114.688C83.75 115.516 83.4208 116.311 82.8347 116.897C82.2487 117.483 81.4538 117.812 80.625 117.812V117.812Z" stroke="#383A48" stroke-width="4" stroke-linecap="round" stroke-linejoin="round"/>
<path d="M108.75 100.625C109.579 100.625 110.374 100.954 110.96 101.54C111.546 102.126 111.875 102.921 111.875 103.75V105.312C111.875 108.628 110.558 111.807 108.214 114.151C105.87 116.496 102.69 117.812 99.375 117.812C98.5462 117.812 97.7513 117.483 97.1653 116.897C96.5792 116.311 96.25 115.516 96.25 114.688V113.125C96.25 109.81 97.567 106.63 99.9112 104.286C102.255 101.942 105.435 100.625 108.75 100.625Z" stroke="#383A48" stroke-width="4" stroke-linecap="round" stroke-linejoin="round"/>
<path d="M83.75 131.875H96.25" stroke="#383A48" stroke-width="4" stroke-linecap="round" stroke-linejoin="round"/>
</svg>
