<svg width="180" height="220" viewBox="0 0 180 220" fill="none" xmlns="http://www.w3.org/2000/svg">
<rect x="1.5" y="1.5" width="177" height="217" rx="6.5" fill="#FBF7ED" stroke="#383A48" stroke-width="3"/>
<path d="M47.2266 133.711C47.2266 133.711 68.125 124.023 68.125 91.25C68.125 85.4484 70.4297 79.8844 74.532 75.782C78.6344 71.6797 84.1984 69.375 90 69.375C95.8016 69.375 101.366 71.6797 105.468 75.782C109.57 79.8844 111.875 85.4484 111.875 91.25C111.875 124.023 132.773 133.711 132.773 133.711C129.141 137.109 121.445 135.039 117.07 137.422C112.695 139.805 110.43 147.422 105.547 148.672C100.664 149.922 95.0781 144.375 90 144.375C84.9219 144.375 79.1797 149.883 74.4531 148.672C69.7266 147.461 67.2266 139.805 62.9297 137.422C58.6328 135.039 50.8594 137.109 47.2266 133.711Z" stroke="#383A48" stroke-width="4" stroke-linecap="round" stroke-linejoin="round"/>
<path d="M113.944 107.93L124.374 103.75" stroke="#383A48" stroke-width="4" stroke-linecap="round" stroke-linejoin="round"/>
<path d="M66.0547 107.93L55.625 103.75" stroke="#383A48" stroke-width="4" stroke-linecap="round" stroke-linejoin="round"/>
</svg>
