<svg width="117" height="29" viewBox="0 0 117 29" fill="none" xmlns="http://www.w3.org/2000/svg">
<path d="M8.8758 28.272C7.22114 28.272 5.7478 27.9887 4.45581 27.422C3.1638 26.8553 2.1438 26.0847 1.3958 25.11C0.647805 24.1127 0.228471 23.002 0.137805 21.778H5.8838C5.9518 22.4353 6.25781 22.968 6.80181 23.376C7.3458 23.784 8.01447 23.988 8.8078 23.988C9.53314 23.988 10.0885 23.852 10.4738 23.58C10.8818 23.2853 11.0858 22.9113 11.0858 22.458C11.0858 21.914 10.8025 21.5173 10.2358 21.268C9.66914 20.996 8.75114 20.7013 7.48181 20.384C6.12181 20.0667 4.98847 19.738 4.0818 19.398C3.17514 19.0353 2.39314 18.48 1.7358 17.732C1.07847 16.9613 0.749805 15.93 0.749805 14.638C0.749805 13.55 1.04447 12.564 1.6338 11.68C2.2458 10.7733 3.12981 10.0593 4.28581 9.538C5.46447 9.01667 6.85847 8.756 8.46781 8.756C10.8478 8.756 12.7178 9.34533 14.0778 10.524C15.4605 11.7027 16.2538 13.2667 16.4578 15.216H11.0858C10.9951 14.5587 10.7005 14.0373 10.2018 13.652C9.72581 13.2667 9.09114 13.074 8.29781 13.074C7.61781 13.074 7.09647 13.21 6.73381 13.482C6.37114 13.7313 6.1898 14.0827 6.1898 14.536C6.1898 15.08 6.47314 15.488 7.03981 15.76C7.62914 16.032 8.53581 16.304 9.75981 16.576C11.1651 16.9387 12.3098 17.3013 13.1938 17.664C14.0778 18.004 14.8485 18.5707 15.5058 19.364C16.1858 20.1347 16.5371 21.1773 16.5598 22.492C16.5598 23.6027 16.2425 24.6 15.6078 25.484C14.9958 26.3453 14.1005 27.0253 12.9218 27.524C11.7658 28.0227 10.4171 28.272 8.8758 28.272ZM30.6908 23.07V28H27.7328C25.6248 28 23.9815 27.49 22.8028 26.47C21.6241 25.4273 21.0348 23.7387 21.0348 21.404V13.856H18.7228V9.028H21.0348V4.404H26.8488V9.028H30.6568V13.856H26.8488V21.472C26.8488 22.0387 26.9848 22.4467 27.2568 22.696C27.5288 22.9453 27.9821 23.07 28.6168 23.07H30.6908ZM42.5653 28.272C40.7066 28.272 39.0293 27.8753 37.5333 27.082C36.06 26.2887 34.8926 25.1553 34.0313 23.682C33.1926 22.2087 32.7733 20.486 32.7733 18.514C32.7733 16.5647 33.204 14.8533 34.0653 13.38C34.9266 11.884 36.1053 10.7393 37.6013 9.946C39.0973 9.15267 40.7746 8.756 42.6333 8.756C44.492 8.756 46.1693 9.15267 47.6653 9.946C49.1613 10.7393 50.34 11.884 51.2013 13.38C52.0626 14.8533 52.4933 16.5647 52.4933 18.514C52.4933 20.4633 52.0513 22.186 51.1673 23.682C50.306 25.1553 49.116 26.2887 47.5973 27.082C46.1013 27.8753 44.424 28.272 42.5653 28.272ZM42.5653 23.24C43.676 23.24 44.6166 22.832 45.3873 22.016C46.1806 21.2 46.5773 20.0327 46.5773 18.514C46.5773 16.9953 46.192 15.828 45.4213 15.012C44.6733 14.196 43.744 13.788 42.6333 13.788C41.5 13.788 40.5593 14.196 39.8113 15.012C39.0633 15.8053 38.6893 16.9727 38.6893 18.514C38.6893 20.0327 39.052 21.2 39.7773 22.016C40.5253 22.832 41.4546 23.24 42.5653 23.24ZM61.3917 12.19C62.0717 11.1473 62.9217 10.3313 63.9417 9.742C64.9617 9.13 66.0951 8.824 67.3417 8.824V14.978H65.7437C64.2931 14.978 63.2051 15.2953 62.4797 15.93C61.7544 16.542 61.3917 17.63 61.3917 19.194V28H55.5777V9.028H61.3917V12.19ZM73.0447 7.056C72.0247 7.056 71.186 6.76133 70.5287 6.172C69.894 5.56 69.5767 4.812 69.5767 3.928C69.5767 3.02133 69.894 2.27333 70.5287 1.684C71.186 1.072 72.0247 0.765998 73.0447 0.765998C74.042 0.765998 74.858 1.072 75.4927 1.684C76.15 2.27333 76.4787 3.02133 76.4787 3.928C76.4787 4.812 76.15 5.56 75.4927 6.172C74.858 6.76133 74.042 7.056 73.0447 7.056ZM75.9347 9.028V28H70.1207V9.028H75.9347ZM98.032 18.208C98.032 18.752 97.998 19.3187 97.93 19.908H84.772C84.8627 21.0867 85.2367 21.9933 85.894 22.628C86.574 23.24 87.4014 23.546 88.376 23.546C89.8267 23.546 90.8354 22.934 91.402 21.71H97.59C97.2727 22.9567 96.6947 24.0787 95.856 25.076C95.04 26.0733 94.0087 26.8553 92.762 27.422C91.5154 27.9887 90.1214 28.272 88.58 28.272C86.7214 28.272 85.0667 27.8753 83.616 27.082C82.1654 26.2887 81.032 25.1553 80.216 23.682C79.4 22.2087 78.992 20.486 78.992 18.514C78.992 16.542 79.3887 14.8193 80.182 13.346C80.998 11.8727 82.1314 10.7393 83.582 9.946C85.0327 9.15267 86.6987 8.756 88.58 8.756C90.416 8.756 92.048 9.14133 93.476 9.912C94.904 10.6827 96.0147 11.782 96.808 13.21C97.624 14.638 98.032 16.304 98.032 18.208ZM92.082 16.678C92.082 15.6807 91.742 14.8873 91.062 14.298C90.382 13.7087 89.532 13.414 88.512 13.414C87.5374 13.414 86.71 13.6973 86.03 14.264C85.3727 14.8307 84.9647 15.6353 84.806 16.678H92.082ZM108.817 28.272C107.163 28.272 105.689 27.9887 104.397 27.422C103.105 26.8553 102.085 26.0847 101.337 25.11C100.589 24.1127 100.17 23.002 100.079 21.778H105.825C105.893 22.4353 106.199 22.968 106.743 23.376C107.287 23.784 107.956 23.988 108.749 23.988C109.475 23.988 110.03 23.852 110.415 23.58C110.823 23.2853 111.027 22.9113 111.027 22.458C111.027 21.914 110.744 21.5173 110.177 21.268C109.611 20.996 108.693 20.7013 107.423 20.384C106.063 20.0667 104.93 19.738 104.023 19.398C103.117 19.0353 102.335 18.48 101.677 17.732C101.02 16.9613 100.691 15.93 100.691 14.638C100.691 13.55 100.986 12.564 101.575 11.68C102.187 10.7733 103.071 10.0593 104.227 9.538C105.406 9.01667 106.8 8.756 108.409 8.756C110.789 8.756 112.659 9.34533 114.019 10.524C115.402 11.7027 116.195 13.2667 116.399 15.216H111.027C110.937 14.5587 110.642 14.0373 110.143 13.652C109.667 13.2667 109.033 13.074 108.239 13.074C107.559 13.074 107.038 13.21 106.675 13.482C106.313 13.7313 106.131 14.0827 106.131 14.536C106.131 15.08 106.415 15.488 106.981 15.76C107.571 16.032 108.477 16.304 109.701 16.576C111.107 16.9387 112.251 17.3013 113.135 17.664C114.019 18.004 114.79 18.5707 115.447 19.364C116.127 20.1347 116.479 21.1773 116.501 22.492C116.501 23.6027 116.184 24.6 115.549 25.484C114.937 26.3453 114.042 27.0253 112.863 27.524C111.707 28.0227 110.359 28.272 108.817 28.272Z" fill="white"/>
</svg>
