<svg width="210" height="90" viewBox="0 0 210 90" fill="none" xmlns="http://www.w3.org/2000/svg">
<g filter="url(#filter0_ddd_505_46)">
<rect x="20" y="10" width="170" height="50" rx="25" fill="#383A48"/>
</g>
<rect x="19.75" y="8.75" width="167.5" height="48.5" rx="24.25" fill="#7FD6C2" stroke="#383A48" stroke-width="1.5"/>
<path d="M48.728 29.96V32.232H52.392V34.344H48.728V36.808H52.872V39H45.992V27.768H52.872V29.96H48.728ZM68.1683 27.768V39H65.4323V32.264L62.9203 39H60.7123L58.1843 32.248V39H55.4483V27.768H58.6803L61.8323 35.544L64.9523 27.768H68.1683ZM77.7358 33.24C78.3864 33.3787 78.9091 33.704 79.3038 34.216C79.6984 34.7173 79.8958 35.2933 79.8958 35.944C79.8958 36.8827 79.5651 37.6293 78.9038 38.184C78.2531 38.728 77.3411 39 76.1678 39H70.9358V27.768H75.9918C77.1331 27.768 78.0238 28.0293 78.6638 28.552C79.3144 29.0747 79.6398 29.784 79.6398 30.68C79.6398 31.3413 79.4638 31.8907 79.1118 32.328C78.7704 32.7653 78.3118 33.0693 77.7358 33.24ZM73.6718 32.312H75.4638C75.9118 32.312 76.2531 32.216 76.4878 32.024C76.7331 31.8213 76.8558 31.528 76.8558 31.144C76.8558 30.76 76.7331 30.4667 76.4878 30.264C76.2531 30.0613 75.9118 29.96 75.4638 29.96H73.6718V32.312ZM75.6878 36.792C76.1464 36.792 76.4984 36.6907 76.7438 36.488C76.9998 36.2747 77.1278 35.9707 77.1278 35.576C77.1278 35.1813 76.9944 34.872 76.7278 34.648C76.4718 34.424 76.1144 34.312 75.6558 34.312H73.6718V36.792H75.6878ZM89.2746 37.016H85.0826L84.4106 39H81.5466L85.6106 27.768H88.7786L92.8426 39H89.9466L89.2746 37.016ZM88.5706 34.904L87.1786 30.792L85.8026 34.904H88.5706ZM100.608 39L98.2715 34.76H97.6155V39H94.8795V27.768H99.4715C100.357 27.768 101.109 27.9227 101.728 28.232C102.357 28.5413 102.826 28.968 103.136 29.512C103.445 30.0453 103.6 30.6427 103.6 31.304C103.6 32.0507 103.386 32.7173 102.96 33.304C102.544 33.8907 101.925 34.3067 101.104 34.552L103.696 39H100.608ZM97.6155 32.824H99.3115C99.8128 32.824 100.186 32.7013 100.432 32.456C100.688 32.2107 100.816 31.864 100.816 31.416C100.816 30.9893 100.688 30.6533 100.432 30.408C100.186 30.1627 99.8128 30.04 99.3115 30.04H97.6155V32.824ZM113.109 37.016H108.917L108.245 39H105.381L109.445 27.768H112.613L116.677 39H113.781L113.109 37.016ZM112.405 34.904L111.013 30.792L109.637 34.904H112.405ZM121.45 36.888H125.034V39H118.714V27.768H121.45V36.888ZM136.867 27.768V39H134.131V34.376H129.875V39H127.139V27.768H129.875V32.168H134.131V27.768H136.867ZM146.634 37.016H142.442L141.77 39H138.906L142.97 27.768H146.138L150.202 39H147.306L146.634 37.016ZM145.93 34.904L144.538 30.792L143.162 34.904H145.93ZM157.967 39L155.631 34.76H154.975V39H152.239V27.768H156.831C157.716 27.768 158.468 27.9227 159.087 28.232C159.716 28.5413 160.186 28.968 160.495 29.512C160.804 30.0453 160.959 30.6427 160.959 31.304C160.959 32.0507 160.746 32.7173 160.319 33.304C159.903 33.8907 159.284 34.3067 158.463 34.552L161.055 39H157.967ZM154.975 32.824H156.671C157.172 32.824 157.546 32.7013 157.791 32.456C158.047 32.2107 158.175 31.864 158.175 31.416C158.175 30.9893 158.047 30.6533 157.791 30.408C157.546 30.1627 157.172 30.04 156.671 30.04H154.975V32.824Z" fill="white"/>
<defs>
<filter id="filter0_ddd_505_46" x="0" y="0" width="210" height="90" filterUnits="userSpaceOnUse" color-interpolation-filters="sRGB">
<feFlood flood-opacity="0" result="BackgroundImageFix"/>
<feColorMatrix in="SourceAlpha" type="matrix" values="0 0 0 0 0 0 0 0 0 0 0 0 0 0 0 0 0 0 127 0" result="hardAlpha"/>
<feOffset/>
<feGaussianBlur stdDeviation="0.5"/>
<feColorMatrix type="matrix" values="0 0 0 0 0 0 0 0 0 0 0 0 0 0 0 0 0 0 0.04 0"/>
<feBlend mode="normal" in2="BackgroundImageFix" result="effect1_dropShadow_505_46"/>
<feColorMatrix in="SourceAlpha" type="matrix" values="0 0 0 0 0 0 0 0 0 0 0 0 0 0 0 0 0 0 127 0" result="hardAlpha"/>
<feOffset dy="2"/>
<feGaussianBlur stdDeviation="3"/>
<feColorMatrix type="matrix" values="0 0 0 0 0 0 0 0 0 0 0 0 0 0 0 0 0 0 0.04 0"/>
<feBlend mode="normal" in2="effect1_dropShadow_505_46" result="effect2_dropShadow_505_46"/>
<feColorMatrix in="SourceAlpha" type="matrix" values="0 0 0 0 0 0 0 0 0 0 0 0 0 0 0 0 0 0 127 0" result="hardAlpha"/>
<feOffset dy="10"/>
<feGaussianBlur stdDeviation="10"/>
<feColorMatrix type="matrix" values="0 0 0 0 0 0 0 0 0 0 0 0 0 0 0 0 0 0 0.04 0"/>
<feBlend mode="normal" in2="effect2_dropShadow_505_46" result="effect3_dropShadow_505_46"/>
<feBlend mode="normal" in="SourceGraphic" in2="effect3_dropShadow_505_46" result="shape"/>
</filter>
</defs>
</svg>
